<svg width="16" height="16" viewBox="0 0 16 16" fill="none" xmlns="http://www.w3.org/2000/svg">
<path d="M10.79 12.912L9.176 11.297C8.55184 11.5202 7.87715 11.5615 7.23042 11.4162C6.58369 11.2709 5.99153 10.9449 5.52282 10.4762C5.05411 10.0075 4.72814 9.41531 4.58283 8.76858C4.43752 8.12185 4.47885 7.44716 4.702 6.823L2.642 4.763C0.938 6.278 0 8 0 8C0 8 3 13.5 8 13.5C8.9604 13.4967 9.90994 13.2965 10.79 12.912ZM5.21 3.088C6.09005 2.70342 7.03959 2.50331 8 2.5C13 2.5 16 8 16 8C16 8 15.061 9.721 13.359 11.238L11.297 9.176C11.5202 8.55184 11.5615 7.87715 11.4162 7.23042C11.2709 6.58369 10.9449 5.99153 10.4762 5.52282C10.0075 5.05411 9.41531 4.72814 8.76858 4.58283C8.12185 4.43752 7.44716 4.47885 6.823 4.702L5.21 3.089V3.088Z" fill="#66778A"/>
<path d="M5.52498 7.64625C5.46997 8.03056 5.50522 8.4224 5.62794 8.79072C5.75066 9.15904 5.95747 9.49372 6.23199 9.76823C6.50651 10.0428 6.84119 10.2496 7.20951 10.3723C7.57783 10.495 7.96967 10.5303 8.35398 10.4752L5.52398 7.64625H5.52498ZM10.475 8.35425L7.64598 5.52425C8.03029 5.46924 8.42213 5.50449 8.79045 5.62721C9.15877 5.74993 9.49345 5.95674 9.76797 6.23126C10.0425 6.50577 10.2493 6.84045 10.372 7.20877C10.4947 7.5771 10.53 7.96893 10.475 8.35325V8.35425Z" fill="#66778A"/>
<path fill-rule="evenodd" clip-rule="evenodd" d="M13.646 14.354L1.646 2.354L2.354 1.646L14.354 13.646L13.646 14.354Z" fill="#66778A"/>
</svg>
