<svg width="111" height="50" viewBox="0 0 111 50" fill="none" xmlns="http://www.w3.org/2000/svg">
<g clip-path="url(#clip0_1026_0)">
<path d="M93.463 36.3414C94.0297 37.2469 95.0211 37.8938 96.2966 37.8938H102.956C103.664 37.8938 104.23 37.1176 103.948 36.4707L97.0048 23.7929C96.7221 23.1461 96.7221 22.4993 97.1466 21.8524L110.182 4H101.539C100.547 4 99.5549 4.51746 98.9885 5.29366L86.6623 21.9818C86.2372 22.4993 86.2373 23.2755 86.5206 23.9223L93.463 36.3414Z" fill="#01579B"/>
<path d="M87.9378 13.1852C87.3711 12.2796 86.3793 11.6328 85.1042 11.6328H78.4452C77.7368 11.6328 77.17 12.409 77.4534 13.0558L84.3958 25.7336C84.6792 26.3804 84.6792 27.0273 84.2542 27.6741L71.2195 45.5265H79.862C80.8538 45.5265 81.8455 45.0091 82.4123 44.2329L94.5967 27.5447C95.0221 27.0273 95.0221 26.2511 94.7385 25.6042L87.9378 13.1852Z" fill="#0288D1"/>
<path fill-rule="evenodd" clip-rule="evenodd" d="M57.7596 25.8626L63.2852 26.3801C64.9854 26.5094 66.4021 27.6737 66.8272 29.2261C66.9689 30.261 66.9689 31.1666 66.8272 32.2015V32.4602C66.5439 34.0126 65.127 35.1769 63.2852 35.3063H63.1435C61.16 35.4356 59.0347 35.4356 56.9096 35.3063C55.0677 35.1769 53.6509 33.8833 53.3675 32.2015V31.9428V30.0023H55.9178C56.2012 30.0023 56.3428 30.1317 56.3428 30.3904V30.6491C56.3428 31.0372 56.3428 31.296 56.4845 31.684C56.6262 32.3309 57.1929 32.719 57.9013 32.8483H58.1847C59.4598 32.9777 60.735 32.9777 62.0101 32.8483C62.7185 32.719 63.2852 32.2015 63.4268 31.5547V31.4253C63.5686 30.9079 63.5686 30.261 63.4268 29.7436C63.2852 29.2261 62.8601 28.9674 62.2934 28.838L56.0594 28.0618C54.6427 27.9324 53.5092 26.8975 53.2258 25.6039C52.9424 24.4396 52.9424 23.2753 53.2258 22.111C53.5092 20.8173 54.6427 19.7824 56.0594 19.6531H56.2012C58.4681 19.3943 60.8766 19.3943 63.2852 19.6531C64.8437 19.7824 65.9771 20.8173 66.2605 22.2404V22.6285V24.1808H63.5686C63.4268 24.1808 63.2852 24.0515 63.2852 23.9221C63.2852 23.6634 63.2852 23.2753 63.1435 22.8872C63.0018 22.2404 62.4351 21.8523 61.7267 21.7229H61.4433C60.3098 21.5935 59.1764 21.5935 58.043 21.7229C57.3346 21.8523 56.7678 22.3697 56.6262 23.0166C56.4845 23.534 56.4845 24.1809 56.6262 24.6983V24.957C56.7678 25.4745 57.1929 25.8626 57.7596 25.8626ZM38.3493 19.6531H36.2241C35.7991 19.6531 35.5157 19.9118 35.3741 20.1706L30.8402 32.2016L26.3064 20.0412C26.1648 19.7825 25.8814 19.5237 25.4564 19.5237H23.3312C23.0478 19.5237 22.9061 19.7825 22.9061 20.0412L28.2899 34.5302C28.4317 34.7889 28.7151 35.0476 29.1401 35.0476H29.8484H31.9737H32.8238C32.9655 35.0476 33.1071 34.9182 33.2488 34.7889L38.6327 20.0412C38.7744 19.9118 38.6327 19.6531 38.3493 19.6531ZM0.945557 34.4008V20.0412C0.945557 19.7825 1.08723 19.6531 1.3706 19.6531H4.3459V34.7889C4.3459 35.0476 4.20422 35.177 3.92086 35.177H1.79565C1.3706 35.177 0.945557 34.7889 0.945557 34.4008ZM43.0248 19.6531H51.6673C51.8089 19.6531 52.0923 19.7825 51.9507 20.0412V21.9817H42.883V25.8626H50.9588V28.1912H42.883V32.8484H51.9507V34.7889C51.9507 35.0476 51.8089 35.177 51.5256 35.177H42.883H42.458H40.3328C39.9078 35.177 39.4827 34.7889 39.4827 34.4008V20.0412C39.4827 19.7825 39.6244 19.6531 39.9078 19.6531H42.5997H43.0248ZM66.8272 20.0412V21.2055C66.8272 21.5936 67.2522 21.9817 67.6773 21.9817H71.361V34.4008C71.361 34.7889 71.786 35.177 72.2111 35.177H74.3363C74.6197 35.177 74.7613 35.0476 74.7613 34.7889V21.9817H78.87C79.1534 21.9817 79.2952 21.8523 79.2952 21.5936V19.6531H67.2522C66.9689 19.6531 66.8272 19.7825 66.8272 20.0412ZM18.7973 31.5547V20.0412C18.7973 19.7825 18.9389 19.6531 19.2223 19.6531H22.1977V34.7889C22.1977 35.0476 22.0559 35.177 21.7726 35.177H21.2059H18.9389H18.3723C18.0889 35.177 17.8055 35.0476 17.6638 34.7889L10.2965 23.2753V35.177H7.74617C7.32113 35.177 6.89609 34.7889 6.89609 34.4008V20.0412C6.89609 19.7825 7.03777 19.6531 7.32113 19.6531H7.88786H10.1547H10.7215C11.0049 19.6531 11.2882 19.7825 11.4299 20.0412L18.7973 31.5547Z" fill="black"/>
</g>
<defs>
<clipPath id="clip0_1026_0">
<rect width="110.626" height="50" fill="white"/>
</clipPath>
</defs>
</svg>
